# xmcd
#
# Track frame offsets:
#	150
#	11405
#	25797
#	38101
#	49780
#	63537
#	77951
#	91318
#	104028
#	121475
#	133807
#	152055
#
# Disc length: 2199 seconds
# Revision: 0
# Processed by: cddbd v1.5.2PL0 Copyright (c) Steve Scherf et al.
# Submitted via: dBpowerAMP V12.0
#
DISCID=9e08950c
DTITLE=The Farm Hands - Colors
DYEAR=2017
DGENRE=Country
TTITLE0=Rural Route
TTITLE1=Colors
TTITLE2=Sin City
TTITLE3=They Don't Make Em' Like My Daddy Anymore
TTITLE4=The Old 109
TTITLE5=The Four of Us
TTITLE6=Nashville Skyline Rag
TTITLE7=The Bible in the Drawer
TTITLE8=Crying for Crumbs
TTITLE9=I'm Going Home
TTITLE10=His Old Fiddle
TTITLE11=Anywhere is Home
EXTD=
EXTT0=
EXTT1=
EXTT2=
EXTT3=
EXTT4=
EXTT5=
EXTT6=
EXTT7=
EXTT8=
EXTT9=
EXTT10=
EXTT11=
PLAYORDER=
